<svg fill="none" height="24" viewBox="0 0 24 24" width="24"><path d="M4 4C3.73 4 3.48 4.10 3.29 4.29C3.10 4.48 3 4.73 3 5V19C3 19.26 3.10 19.51 3.29 19.70C3.48 19.89 3.73 20 4 20C4.26 20 4.51 19.89 4.70 19.70C4.89 19.51 5 19.26 5 19V5C5 4.73 4.89 4.48 4.70 4.29C4.51 4.10 4.26 4 4 4ZM18.95 4.23L6 12.00L18.95 19.77C19.15 19.89 19.39 19.96 19.63 19.96C19.87 19.97 20.10 19.91 20.31 19.79C20.52 19.67 20.69 19.50 20.81 19.29C20.93 19.09 21.00 18.85 21 18.61V5.38C20.99 5.14 20.93 4.91 20.81 4.70C20.69 4.50 20.52 4.33 20.31 4.21C20.10 4.09 19.87 4.03 19.63 4.03C19.39 4.04 19.15 4.10 18.95 4.23Z" fill="white"></path></svg>