<?xml version="1.0" standalone="no"?>
<svg xmlns="http://www.w3.org/2000/svg" height="718pt" preserveAspectRatio="xMidYMid meet" viewBox="0 0 1920 718" width="1920pt">
  <path d="m17180 7170c-444-44-950-284-1489-708-54-42-174-139-268-214-588-475-1070-716-1583-794-128-19-389-21-520-5-287 37-613 149-904 312-250 140-431 266-765 534-253 202-379 294-550 400-382 237-759 382-1151 442-139 21-493 23-615 4-329-51-577-128-870-272-281-138-505-288-872-582-473-379-820-593-1163-719-312-114-628-154-930-118-377 46-801 236-1259 563-63 45-219 166-347 269-345 278-544 417-784 548-289 157-572 259-850 305-135 23-392 30-530 16-414-43-835-210-1273-503-107-72-345-251-406-305l-44-39 223-332c123-183 227-332 230-332 4 0 52 35 106 78 409 323 769 513 1094 577 115 23 333 30 445 16 278-37 561-152 875-358 138-91 221-153 450-338 409-331 696-523 1025-687 320-160 606-255 918-305 159-25 575-25 734 0 311 50 598 145 915 303 339 169 603 347 1048 704 398 320 666 480 982 585 202 67 305 86 510 92 204 7 316-5 493-49 369-93 693-275 1160-653 731-592 1324-890 1975-992 178-28 608-25 784 5 432 75 829 230 1258 493 225 137 424 282 703 509 363 295 548 424 780 541 243 122 417 169 630 169 371 0 741-173 1264-592 68-54 127-98 132-96 4 2 108 151 230 332l222 330-42 37c-70 62-320 252-436 331-384 262-731 417-1066 478-126 22-349 32-469 20zm20-2287c-412-39-822-214-1304-556-69-49-241-181-383-295-545-438-858-627-1273-770-449-154-904-153-1358 3-395 136-714 328-1233 742-339 271-530 401-782 533-318 166-605 261-942 312-148 22-502 16-660-11-574-97-1058-341-1670-841-623-509-1111-762-1615-836-167-24-449-15-617 20-353 75-703 242-1108 531-126 89-193 141-470 366-1046 845-1948 1004-2923 515-139-70-256-138-402-236-165-111-448-327-449-343-1-10 438-661 447-665 4-1 50 32 102 73 387 309 728 493 1060 572 158 37 392 43 555 14 294-53 606-199 937-437 51-37 169-128 262-203 342-276 518-404 745-544 716-442 1368-595 2046-482 268 45 555 142 845 286 335 166 660 384 1046 700 255 209 443 337 669 455 494 258 974 305 1470 143 268-88 626-295 920-533 497-403 776-590 1150-772 340-165 615-253 960-305 137-21 569-18 710 4 180 29 330 65 501 122 486 162 955 439 1507 892 814 668 1263 823 1822 629 243-84 575-292 908-568 32-26 61-48 65-48 8 0 446 647 449 664 2 12-35 43-246 205-523 400-973 610-1416 661-84 9-245 11-325 3zm-25-2289c-90-10-264-47-372-80-380-115-777-353-1296-776-509-415-882-639-1290-773-211-69-368-96-592-102-275-8-465 21-729 108-385 128-774 362-1251 750-321 262-553 418-828 555-389 195-725 287-1107 301-579 21-1154-171-1747-584-68-48-230-171-358-274-470-377-780-572-1125-708-251-99-444-141-692-148-252-8-422 18-678 103-363 121-754 359-1227 747-417 342-750 553-1092 691-305 124-562 176-865 176-488-1-953-164-1486-523-186-125-425-311-425-331 0-13 437-666 445-666 3 0 59 43 125 96 361 287 729 483 1044 555 110 26 372 36 492 20 185-25 371-86 581-193 214-108 403-238 718-493 482-390 851-626 1235-790 232-99 492-174 726-211 162-26 558-26 718-1 473 76 935 270 1422 598 180 122 305 216 564 424 532 429 968 633 1422 665 416 29 831-94 1273-378 111-71 245-171 400-297 435-353 735-552 1093-725 337-163 612-249 962-302 137-20 549-17 695 5 665 104 1276 412 2015 1017 519 425 853 618 1190 685 103 21 313 21 420 0 300-57 628-235 1039-563 72-57 135-106 141-108 11-4 450 643 450 663 0 6-61 60-135 119-520 411-935 630-1362 719-97 21-159 27-298 29-96 2-193 2-215 0z" transform="matrix(.1 0 0 -.1 0 718)" fill="#000000" stroke="none" stroke-width="2" vector-effect="non-scaling-stroke"/>
</svg>
