<?xml version="1.0" encoding="UTF-8" standalone="no"?>
<svg
   height="24"
   preserveAspectRatio="xMidYMid"
   viewBox="0 0 18.000002 17.999993"
   width="24"
   version="1.1"
   id="svg184"
   sodipodi:docname="water.svg"
   inkscape:version="1.2.2 (b0a84865, 2022-12-01)"
   xmlns:inkscape="http://www.inkscape.org/namespaces/inkscape"
   xmlns:sodipodi="http://sodipodi.sourceforge.net/DTD/sodipodi-0.dtd"
   xmlns="http://www.w3.org/2000/svg"
   xmlns:svg="http://www.w3.org/2000/svg">
  <defs
     id="defs188" />
  <sodipodi:namedview
     id="namedview186"
     pagecolor="#ffffff"
     bordercolor="#000000"
     borderopacity="0.25"
     inkscape:showpageshadow="2"
     inkscape:pageopacity="0.0"
     inkscape:pagecheckerboard="0"
     inkscape:deskcolor="#d1d1d1"
     showgrid="false"
     inkscape:zoom="23.252137"
     inkscape:cx="14.493292"
     inkscape:cy="13.955707"
     inkscape:window-width="1708"
     inkscape:window-height="1371"
     inkscape:window-x="1724"
     inkscape:window-y="33"
     inkscape:window-maximized="0"
     inkscape:current-layer="svg184" />
  <path
     style="fill:none;fill-opacity:1;fill-rule:nonzero;stroke:#000000;stroke-width:0.999641;stroke-linecap:square;stroke-dasharray:none;stroke-opacity:1"
     d="m 0.68421245,13.064198 c 0,0 0.68440235,-1.158284 1.35237735,-1.164289 1.1708684,-0.01054 1.7811469,2.957887 3.4671378,2.957887 1.5616702,0 2.3155171,-2.944795 3.5250168,-2.950234 1.2832506,-0.0059 1.8479076,2.950234 3.5632766,2.950234 1.745525,0 2.41352,-2.988049 3.459602,-2.978733 0.567696,0.005 1.263721,1.178271 1.263721,1.178271 M 0.68421245,9.2719721 c 0,0 0.68440235,-1.1582835 1.35237735,-1.1642884 1.1708684,-0.010548 1.7811469,2.9579043 3.4671378,2.9579043 1.5616702,0 2.3155171,-2.9448134 3.5250168,-2.9502523 1.2832506,-0.00576 1.8479076,2.9502353 3.5632766,2.9502353 1.745525,0 2.41352,-2.9880498 3.459602,-2.9787332 0.567696,0.00506 1.263721,1.1782719 1.263721,1.1782719 M 0.68420364,5.230504 c 0,0 0.68440236,-1.1582838 1.35237726,-1.1642888 1.170886,-0.010548 1.7811558,2.9579044 3.4671467,2.9579044 1.5616702,0 2.3155083,-2.9448134 3.525008,-2.9502524 1.2832594,-0.00576 1.8479164,2.9502352 3.5632854,2.9502352 1.745525,0 2.41352,-2.9880496 3.459602,-2.9787331 0.567696,0.00506 1.263721,1.178272 1.263721,1.178272"
     id="path182" />
</svg>
