<svg fill="none" height="36" viewBox="0 0 36 36" width="36"><path d="M 17 8.6 L 10.89 4.99 C 9.39 4.11 7.5 5.19 7.5 6.93 C 7.5 6.93 7.5 6.93 7.5 6.93 L 7.5 29.06 C 7.5 30.8 9.39 31.88 10.89 31 C 10.89 31 10.89 31 10.89 31 L 17 27.4 C 17 27.4 17 27.4 17 27.4 C 17 27.4 17 27.4 17 27.4 L 17 8.6 C 17 8.6 17 8.6 17 8.6 C 17 8.6 17 8.6 17 8.6 Z M 17 8.6 L 17 8.6 C 17 8.6 17 8.6 17 8.6 C 17 8.6 17 8.6 17 8.6 V 27.4 C 17 27.4 17 27.4 17 27.4 C 17 27.4 17 27.4 17 27.4 L 33 18 C 33 18 33 18 33 18 C 33 18 33 18 33 18 V 18 L 17 8.6 C 17 8.6 17 8.6 17 8.6 C 17 8.6 17 8.6 17 8.6 Z" fill="white"></path></svg>